<svg width="30" height="30" viewBox="0 0 30 30" fill="none" xmlns="http://www.w3.org/2000/svg">
<path fill-rule="evenodd" clip-rule="evenodd" d="M15 0C6.716 0 0 6.716 0 15C0.00461797 16.1592 0.145587 17.3138 0.42 18.44C0.879802 16.7185 1.79123 15.1511 3.06 13.9C3.34536 10.9298 4.72711 8.17237 6.93565 6.16584C9.14419 4.15931 12.0211 3.0476 15.005 3.0476C17.9889 3.0476 20.8658 4.15931 23.0744 6.16584C25.2829 8.17237 26.6646 10.9298 26.95 13.9C28.2188 15.1511 29.1302 16.7185 29.59 18.44C29.8612 17.3134 29.9988 16.1588 30 15C30 11.0218 28.4196 7.20644 25.6066 4.3934C22.7936 1.58035 18.9782 0 15 0ZM8.11 14.5H7.58C4.73 14.5 2.43 17.86 2.43 22C2.43 26.14 4.74 29.5 7.58 29.5H8.11C8.37547 29.4861 8.6355 29.4193 8.87488 29.3037C9.11426 29.1881 9.32819 29.0259 9.50416 28.8267C9.68014 28.6274 9.81462 28.3951 9.89976 28.1433C9.9849 27.8914 10.019 27.6252 10 27.36V16.65C10.0204 16.384 9.98733 16.1167 9.90283 15.8637C9.81833 15.6107 9.68407 15.3772 9.50796 15.1768C9.33185 14.9765 9.11744 14.8134 8.87736 14.6972C8.63728 14.5809 8.37638 14.5139 8.11 14.5ZM22.42 14.5H21.89C21.6236 14.5139 21.3627 14.5809 21.1226 14.6972C20.8826 14.8134 20.6681 14.9765 20.492 15.1768C20.3159 15.3772 20.1817 15.6107 20.0972 15.8637C20.0127 16.1167 19.9796 16.384 20 16.65V27.36C19.981 27.6252 20.0151 27.8914 20.1002 28.1433C20.1854 28.3951 20.3199 28.6274 20.4958 28.8267C20.6718 29.0259 20.8857 29.1881 21.1251 29.3037C21.3645 29.4193 21.6245 29.4861 21.89 29.5H22.42C25.27 29.5 27.57 26.14 27.57 22C27.57 17.86 25.26 14.5 22.42 14.5Z" fill="url(#paint0_linear_385_523)"/>
<defs>
<linearGradient id="paint0_linear_385_523" x1="-3.5" y1="2.7998" x2="28.0126" y2="32.3201" gradientUnits="userSpaceOnUse">
<stop stop-color="#2196F3"/>
<stop offset="1" stop-color="#5D87FD"/>
</linearGradient>
</defs>
</svg>
