<svg width="36" height="36" viewBox="0 0 36 36" fill="none" xmlns="http://www.w3.org/2000/svg">
    <path d="M33.0001 25.3799V29.8799C33.0018 30.2977 32.9163 30.7112 32.7489 31.0939C32.5816 31.4767 32.3361 31.8203 32.0283 32.1027C31.7204 32.3851 31.357 32.6001 30.9613 32.734C30.5655 32.8678 30.1462 32.9175 29.7301 32.8799C25.1144 32.3784 20.6806 30.8011 16.7851 28.2749C13.1609 25.9719 10.0881 22.8992 7.78514 19.2749C5.25011 15.3617 3.67251 10.9064 3.18014 6.2699C3.14266 5.8551 3.19196 5.43704 3.32489 5.04234C3.45783 4.64763 3.6715 4.28494 3.95229 3.97733C4.23309 3.66973 4.57485 3.42397 4.95583 3.25568C5.33681 3.0874 5.74865 3.00029 6.16514 2.9999H10.6651C11.3931 2.99274 12.0988 3.25052 12.6508 3.7252C13.2027 4.19988 13.5633 4.85907 13.6651 5.5799C13.8551 7.02 14.2073 8.43399 14.7151 9.7949C14.917 10.3318 14.9606 10.9153 14.841 11.4762C14.7214 12.0372 14.4434 12.5521 14.0401 12.9599L12.1351 14.8649C14.2705 18.6202 17.3798 21.7296 21.1351 23.8649L23.0401 21.9599C23.448 21.5566 23.9629 21.2787 24.5238 21.159C25.0848 21.0394 25.6683 21.0831 26.2051 21.2849C27.5661 21.7927 28.98 22.145 30.4201 22.3349C31.1488 22.4377 31.8142 22.8047 32.2899 23.3661C32.7656 23.9276 33.0184 24.6443 33.0001 25.3799Z" stroke="white" stroke-width="2" stroke-linecap="round" stroke-linejoin="round"/>
</svg>
