<svg width="23" height="31" viewBox="0 0 23 31" fill="none" xmlns="http://www.w3.org/2000/svg">
<path fill-rule="evenodd" clip-rule="evenodd" d="M11.0202 18.475C12.5682 18.4724 14.0521 17.8562 15.1468 16.7616C16.2414 15.6669 16.8575 14.1831 16.8602 12.635V5.845C16.8602 5.07742 16.709 4.31736 16.4153 3.60822C16.1215 2.89907 15.691 2.25472 15.1482 1.71196C14.6055 1.1692 13.9611 0.738663 13.252 0.444924C12.5428 0.151185 11.7828 0 11.0152 0C10.2476 0 9.48755 0.151185 8.7784 0.444924C8.06925 0.738663 7.4249 1.1692 6.88215 1.71196C6.33939 2.25472 5.90885 2.89907 5.61511 3.60822C5.32137 4.31736 5.17018 5.07742 5.17018 5.845V12.635C5.17283 14.1848 5.79034 15.6702 6.88714 16.7651C7.98394 17.86 9.4704 18.475 11.0202 18.475ZM21.0202 15.105C20.6076 14.9273 20.1415 14.9201 19.7237 15.085C19.3058 15.2499 18.9702 15.5735 18.7902 15.985C18.1349 17.5005 17.0509 18.7914 15.6716 19.699C14.2923 20.6066 12.6779 21.0912 11.0267 21.0934C9.37564 21.0955 7.75991 20.615 6.37829 19.711C4.99666 18.8069 3.90939 17.5188 3.25018 16.005C3.07116 15.5926 2.73564 15.2682 2.31744 15.1032C1.89923 14.9381 1.4326 14.946 1.02018 15.125C0.607773 15.304 0.283368 15.6395 0.118336 16.0577C-0.0466957 16.476 -0.0388367 16.9426 0.140184 17.355C0.949096 19.2078 2.21785 20.8234 3.82616 22.0484C5.43446 23.2735 7.32902 24.0674 9.33018 24.355V26.175H7.21018C6.70769 26.175 6.21014 26.2741 5.74602 26.4667C5.2819 26.6593 4.86035 26.9416 4.5055 27.2974C4.15064 27.6532 3.86947 28.0755 3.67809 28.5401C3.48671 29.0047 3.38887 29.5025 3.39018 30.005H18.6502C18.6475 28.9936 18.2439 28.0245 17.5278 27.3103C16.8117 26.5961 15.8416 26.195 14.8302 26.195H12.7102V24.375C14.7114 24.0874 16.6059 23.2935 18.2142 22.0684C19.8225 20.8434 21.0913 19.2278 21.9002 17.375C21.9942 17.1693 22.0461 16.9469 22.0526 16.7208C22.0591 16.4947 22.0202 16.2697 21.9381 16.0589C21.8561 15.8482 21.7325 15.656 21.5749 15.4939C21.4172 15.3317 21.2286 15.2029 21.0202 15.115V15.105Z" fill="url(#paint0_linear_262_32)"/>
<defs>
<linearGradient id="paint0_linear_262_32" x1="-8" y1="1.01801e-07" x2="29.677" y2="24.9151" gradientUnits="userSpaceOnUse">
<stop stop-color="#2BC8FE"/>
<stop offset="1" stop-color="#5493FE"/>
</linearGradient>
</defs>
</svg>
