<svg width="28" height="32" viewBox="0 0 28 32" fill="none" xmlns="http://www.w3.org/2000/svg">
<path d="M27.2 0L8.16 6.37568V21.6757C7.33809 21.182 6.39874 20.9181 5.44 20.9114C2.45072 20.9114 0 23.3594 0 26.3514C0 29.3379 2.45072 31.7914 5.44 31.7914C8.42928 31.7914 10.88 29.3379 10.88 26.3514V8.33136L24.48 3.74V18.9557C23.6581 18.462 22.7187 18.1981 21.76 18.1914C18.7707 18.1914 16.32 20.6394 16.32 23.6314C16.32 26.6179 18.7707 29.0714 21.76 29.0714C24.7493 29.0714 27.2 26.6179 27.2 23.6314V0Z" fill="url(#paint0_linear_385_810)"/>
<defs>
<linearGradient id="paint0_linear_385_810" x1="13.6" y1="0" x2="13.6" y2="31.7914" gradientUnits="userSpaceOnUse">
<stop stop-color="#26CDFE"/>
<stop offset="1" stop-color="#5B89FD"/>
</linearGradient>
</defs>
</svg>
