<svg width="30" height="30" viewBox="0 0 30 30" fill="none" xmlns="http://www.w3.org/2000/svg">
<path fill-rule="evenodd" clip-rule="evenodd" d="M5.741 19.5511C1.453 14.4081 -0.583 9.10315 0.145 5.01415V4.82415C2.337 -0.942853 8.615 -1.08585 9.57 2.01215L11.456 7.54215C11.6064 7.99828 11.6276 8.48716 11.5171 8.95457C11.4066 9.42199 11.1687 9.84965 10.83 10.1901L8.946 12.0821C10.6793 15.9082 13.7311 18.983 17.544 20.7451L19.134 19.1501C19.4481 18.8335 19.8389 18.6036 20.2683 18.4831C20.6977 18.3625 21.151 18.3553 21.584 18.4621L27.946 20.0471C30.963 20.9101 31.173 27.1371 25.036 29.7051C18.653 31.4871 10.16 24.8321 5.741 19.5511Z" fill="url(#paint0_linear_385_70)"/>
<defs>
<linearGradient id="paint0_linear_385_70" x1="-3" y1="3.53158e-07" x2="30" y2="31.5" gradientUnits="userSpaceOnUse">
<stop stop-color="#39B7FE"/>
<stop offset="1" stop-color="#5B8AFE"/>
</linearGradient>
</defs>
</svg>
