<svg width="31" height="30" viewBox="0 0 31 30" fill="none" xmlns="http://www.w3.org/2000/svg">
<path fill-rule="evenodd" clip-rule="evenodd" d="M6 17.4H1C0.734784 17.4 0.480429 17.5054 0.292892 17.6929C0.105356 17.8804 0 18.1348 0 18.4V28.4C0 28.6652 0.105356 28.9196 0.292892 29.1071C0.480429 29.2946 0.734784 29.4 1 29.4H6C6.26522 29.4 6.51957 29.2946 6.70711 29.1071C6.89464 28.9196 7 28.6652 7 28.4V18.4C7 18.1348 6.89464 17.8804 6.70711 17.6929C6.51957 17.5054 6.26522 17.4 6 17.4ZM16 13.4H11C10.7348 13.4 10.4804 13.5054 10.2929 13.6929C10.1054 13.8804 10 14.1348 10 14.4V28.4C10 28.6652 10.1054 28.9196 10.2929 29.1071C10.4804 29.2946 10.7348 29.4 11 29.4H16C16.2652 29.4 16.5196 29.2946 16.7071 29.1071C16.8946 28.9196 17 28.6652 17 28.4V14.4C17 14.1348 16.8946 13.8804 16.7071 13.6929C16.5196 13.5054 16.2652 13.4 16 13.4ZM29.81 7.8L24.3 0.4C24.2069 0.275804 24.0861 0.175001 23.9472 0.105574C23.8084 0.0361459 23.6552 0 23.5 0C23.3448 0 23.1916 0.0361459 23.0528 0.105574C22.9139 0.175001 22.7931 0.275804 22.7 0.4L17.19 7.8C16.54 8.68 16.9 9.4 17.99 9.4H19.99V28.4C19.99 28.6652 20.0954 28.9196 20.2829 29.1071C20.4704 29.2946 20.7248 29.4 20.99 29.4H25.99C26.2552 29.4 26.5096 29.2946 26.6971 29.1071C26.8846 28.9196 26.99 28.6652 26.99 28.4V9.4H28.99C30.1 9.4 30.47 8.68 29.81 7.8Z" fill="url(#paint0_linear_385_305)"/>
<defs>
<linearGradient id="paint0_linear_385_305" x1="-4.5" y1="4" x2="28.2848" y2="33.3002" gradientUnits="userSpaceOnUse">
<stop stop-color="#2FC1FE"/>
<stop offset="1" stop-color="#6182FD"/>
</linearGradient>
</defs>
</svg>
