<svg width="35" height="30" viewBox="0 0 35 30" fill="none" xmlns="http://www.w3.org/2000/svg">
<path d="M10.3377 1.54121C10.027 1.27453 9.69214 1.03739 9.33743 0.832857C9.32455 0.824271 9.31597 0.811393 9.30309 0.8071C9.28162 0.79422 9.26016 0.789926 9.23869 0.78134C8.81368 0.545221 8.50887 0.433601 8.50887 0.433601L8.53034 0.485119C7.83398 0.179468 7.08404 0.0145955 6.3237 0C2.82914 0 0 2.94076 0 6.5684C0 10.1961 2.83343 13.1368 6.3237 13.1368C7.44419 13.1368 8.47882 12.8105 9.39324 12.2782C9.07985 15.7899 7.3111 20.9116 0.828563 26.1319C-0.0772757 26.8661 -0.244705 28.2227 0.459359 29.1628C0.871494 29.7124 1.4854 30 2.1036 30C2.56843 30.0002 3.01899 29.8394 3.37865 29.5449C11.3337 23.1268 13.3214 16.5326 13.5876 12.1279C14.0426 6.49542 12.334 3.5332 10.7713 1.98769C10.6297 1.83744 10.4966 1.6743 10.3377 1.54121ZM31.1505 1.54121C30.8398 1.27453 30.505 1.03739 30.1503 0.832857L30.1159 0.8071C30.0944 0.79422 30.073 0.789926 30.0515 0.78134C29.6265 0.549514 29.3217 0.433601 29.3217 0.433601L29.3432 0.485119C28.6466 0.179952 27.8968 0.0151018 27.1365 0C23.642 0 20.8128 2.94076 20.8128 6.5684C20.8128 10.1961 23.642 13.1368 27.1365 13.1368C28.257 13.1368 29.2916 12.8105 30.2061 12.2782C29.8927 15.7899 28.1239 20.9116 21.6414 26.1319C20.7312 26.8661 20.5681 28.2227 21.2722 29.1628C21.6843 29.7124 22.2982 30 22.9164 30C23.3813 30.0002 23.8318 29.8394 24.1915 29.5449C32.1465 23.1268 34.1342 16.5326 34.4004 12.1279C34.8555 6.49542 33.1425 3.5332 31.5841 1.98769C31.4425 1.83744 31.3094 1.6743 31.1505 1.54121Z" fill="url(#paint0_linear_385_813)"/>
<defs>
<linearGradient id="paint0_linear_385_813" x1="17.2375" y1="0" x2="17.2375" y2="30" gradientUnits="userSpaceOnUse">
<stop stop-color="#2DC3FE"/>
<stop offset="1" stop-color="#5492FE"/>
</linearGradient>
</defs>
</svg>
