<svg width="32" height="30" viewBox="0 0 32 30" fill="none" xmlns="http://www.w3.org/2000/svg">
<path d="M25.3231 29.9146C24.2025 30.7128 17.0121 25.6531 15.635 25.642C14.2579 25.6309 6.98659 30.5743 5.87905 29.7581C4.77151 28.942 7.37528 20.5595 6.96034 19.2501C6.5454 17.9407 -0.416441 12.5725 0.019653 11.2699C0.455844 9.96735 9.25542 9.84637 10.376 9.04818C11.4967 8.25008 14.4654 -0.0110137 15.8426 1.10247e-05C17.2196 0.0111317 20.0542 8.31891 21.1618 9.13503C22.2693 9.95106 31.0659 10.2137 31.4809 11.5231C31.8959 12.8324 24.8482 18.088 24.412 19.3905C23.9759 20.6931 26.4437 29.1164 25.3231 29.9146Z" fill="url(#paint0_linear_177_720)"/>
<defs>
<linearGradient id="paint0_linear_177_720" x1="-2.5" y1="-2.90801e-07" x2="28.5" y2="33" gradientUnits="userSpaceOnUse">
<stop stop-color="#25CEFE"/>
<stop offset="1" stop-color="#6280FD"/>
</linearGradient>
</defs>
</svg>
