<svg width="23" height="27" viewBox="0 0 23 27" fill="none" xmlns="http://www.w3.org/2000/svg">
    <path d="M16.262 15.8578C14.8231 15.8578 14.1313 16.66 11.77 16.66C9.4087 16.66 8.72187 15.8578 7.27802 15.8578C3.55809 15.8578 0.540039 18.8759 0.540039 22.5958V23.8792C0.540039 25.2078 1.61791 26.2857 2.94646 26.2857H20.5935C21.9221 26.2857 23 25.2078 23 23.8792V22.5958C23 18.8759 19.9819 15.8578 16.262 15.8578ZM20.5935 23.8792H2.94646V22.5958C2.94646 20.2095 4.89165 18.2643 7.27802 18.2643C8.00997 18.2643 9.19814 19.0664 11.77 19.0664C14.3619 19.0664 15.525 18.2643 16.262 18.2643C18.6484 18.2643 20.5935 20.2095 20.5935 22.5958V23.8792ZM11.77 15.0557C15.7556 15.0557 18.9893 11.8221 18.9893 7.83645C18.9893 3.85081 15.7556 0.617188 11.77 0.617188C7.78437 0.617188 4.55074 3.85081 4.55074 7.83645C4.55074 11.8221 7.78437 15.0557 11.77 15.0557ZM11.77 3.02361C14.4221 3.02361 16.5828 5.18437 16.5828 7.83645C16.5828 10.4885 14.4221 12.6493 11.77 12.6493C9.11792 12.6493 6.95716 10.4885 6.95716 7.83645C6.95716 5.18437 9.11792 3.02361 11.77 3.02361Z" fill="black"/>
</svg>
