<svg width="26" height="20" viewBox="0 0 26 20" fill="none" xmlns="http://www.w3.org/2000/svg">
    <path d="M23.6029 0.124878H2.82429C1.50015 0.124878 0.426758 1.19827 0.426758 2.52241V16.9076C0.426758 18.2317 1.50015 19.3051 2.82429 19.3051H23.6029C24.927 19.3051 26.0004 18.2317 26.0004 16.9076V2.52241C26.0004 1.19827 24.927 0.124878 23.6029 0.124878ZM23.6029 2.52241V4.56055C22.4829 5.47256 20.6975 6.8907 16.8804 9.87957C16.0393 10.5412 14.373 12.1309 13.2136 12.1123C12.0544 12.1311 10.3875 10.541 9.54671 9.87957C5.73029 6.89115 3.94438 5.47271 2.82429 4.56055V2.52241H23.6029ZM2.82429 16.9076V7.63703C3.96881 8.54864 5.59188 9.82788 8.06578 11.7651C9.15751 12.6244 11.0694 14.5215 13.2136 14.51C15.3472 14.5215 17.2349 12.652 18.3609 11.7655C20.8348 9.82833 22.4583 8.54874 23.6029 7.63708V16.9076H2.82429Z" fill="black"/>
</svg>
