<svg width="32" height="32" viewBox="0 0 32 32" fill="none" xmlns="http://www.w3.org/2000/svg">
    <path d="M28 0H4C1.79375 0 0 1.79375 0 4V22C0 24.2062 1.79375 26 4 26H10V31.25C10 31.6938 10.3625 32 10.75 32C10.9 32 11.0563 31.9563 11.1938 31.85L19 26H28C30.2062 26 32 24.2062 32 22V4C32 1.79375 30.2062 0 28 0ZM29 22C29 22.55 28.55 23 28 23H18L17.2 23.6L13 26.75V23H4C3.45 23 3 22.55 3 22V4C3 3.45 3.45 3 4 3H28C28.55 3 29 3.45 29 4V22Z" fill="black"/>
    <line x1="8.7002" y1="8.89999" x2="23.3002" y2="8.89999" stroke="black" stroke-width="3" stroke-linecap="round"/>
    <line x1="8.7002" y1="16.1" x2="19.3002" y2="16.1" stroke="black" stroke-width="3" stroke-linecap="round"/>
</svg>
