<svg width="68" height="68" viewBox="0 0 68 68" fill="none" xmlns="http://www.w3.org/2000/svg">
    <g clip-path="url(#clip0_177_1575)">
        <path d="M14.3698 0.5H53.6302C61.2903 0.5 67.5 6.7096 67.5 14.3696V53.63C67.5 61.2901 61.2903 67.5 53.6302 67.5H14.3698C6.70971 67.5 0.5 61.2901 0.5 53.63V14.3696C0.5 6.7096 6.7097 0.5 14.3698 0.5Z" stroke="#C7C7C8"/>
        <path d="M28.3377 20.5412C28.027 20.2745 27.6921 20.0374 27.3374 19.8329C27.3246 19.8243 27.316 19.8114 27.3031 19.8071C27.2816 19.7942 27.2602 19.7899 27.2387 19.7813C26.8137 19.5452 26.5089 19.4336 26.5089 19.4336L26.5303 19.4851C25.834 19.1795 25.084 19.0146 24.3237 19C20.8291 19 18 21.9408 18 25.5684C18 29.1961 20.8334 32.1368 24.3237 32.1368C25.4442 32.1368 26.4788 31.8105 27.3932 31.2782C27.0798 34.7899 25.3111 39.9116 18.8286 45.1319C17.9227 45.8661 17.7553 47.2227 18.4594 48.1628C18.8715 48.7124 19.4854 49 20.1036 49C20.5684 49.0002 21.019 48.8394 21.3786 48.5449C29.3337 42.1268 31.3214 35.5326 31.5876 31.1279C32.0426 25.4954 30.334 22.5332 28.7713 20.9877C28.6297 20.8374 28.4966 20.6743 28.3377 20.5412ZM49.1505 20.5412C48.8398 20.2745 48.505 20.0374 48.1503 19.8329L48.1159 19.8071C48.0944 19.7942 48.073 19.7899 48.0515 19.7813C47.6265 19.5495 47.3217 19.4336 47.3217 19.4336L47.3432 19.4851C46.6466 19.18 45.8968 19.0151 45.1365 19C41.642 19 38.8128 21.9408 38.8128 25.5684C38.8128 29.1961 41.642 32.1368 45.1365 32.1368C46.257 32.1368 47.2916 31.8105 48.2061 31.2782C47.8927 34.7899 46.1239 39.9116 39.6414 45.1319C38.7312 45.8661 38.5681 47.2227 39.2722 48.1628C39.6843 48.7124 40.2982 49 40.9164 49C41.3813 49.0002 41.8318 48.8394 42.1915 48.5449C50.1465 42.1268 52.1342 35.5326 52.4004 31.1279C52.8555 25.4954 51.1425 22.5332 49.5841 20.9877C49.4425 20.8374 49.3094 20.6743 49.1505 20.5412Z" fill="url(#paint0_linear_177_1575)"/>
    </g>
    <defs>
        <linearGradient id="paint0_linear_177_1575" x1="35.2375" y1="19" x2="35.2375" y2="49" gradientUnits="userSpaceOnUse">
            <stop stop-color="#2DC3FE"/>
            <stop offset="1" stop-color="#5492FE"/>
        </linearGradient>
        <clipPath id="clip0_177_1575">
            <rect width="68" height="68" fill="white"/>
        </clipPath>
    </defs>
</svg>
