<svg width="68" height="68" viewBox="0 0 68 68" fill="none" xmlns="http://www.w3.org/2000/svg">
    <path d="M14.3698 0.5H53.6302C61.2903 0.5 67.5 6.7096 67.5 14.3696V53.63C67.5 61.2901 61.2903 67.5 53.6302 67.5H14.3698C6.70971 67.5 0.5 61.2901 0.5 53.63V14.3696C0.5 6.7096 6.7097 0.5 14.3698 0.5Z" stroke="#C7C7C8"/>
    <path fill-rule="evenodd" clip-rule="evenodd" d="M34 18C25.716 18 19 24.716 19 33C19.0046 34.1592 19.1456 35.3138 19.42 36.44C19.8798 34.7185 20.7912 33.1511 22.06 31.9C22.3454 28.9298 23.7271 26.1724 25.9356 24.1658C28.1442 22.1593 31.0211 21.0476 34.005 21.0476C36.9889 21.0476 39.8658 22.1593 42.0744 24.1658C44.2829 26.1724 45.6646 28.9298 45.95 31.9C47.2188 33.1511 48.1302 34.7185 48.59 36.44C48.8612 35.3134 48.9988 34.1588 49 33C49 29.0218 47.4196 25.2064 44.6066 22.3934C41.7936 19.5804 37.9782 18 34 18ZM27.11 32.5H26.58C23.73 32.5 21.43 35.86 21.43 40C21.43 44.14 23.74 47.5 26.58 47.5H27.11C27.3755 47.4861 27.6355 47.4193 27.8749 47.3037C28.1143 47.1881 28.3282 47.0259 28.5042 46.8267C28.6801 46.6274 28.8146 46.3951 28.8998 46.1433C28.9849 45.8914 29.019 45.6252 29 45.36V34.65C29.0204 34.384 28.9873 34.1167 28.9028 33.8637C28.8183 33.6107 28.6841 33.3772 28.508 33.1768C28.3318 32.9765 28.1174 32.8134 27.8774 32.6972C27.6373 32.5809 27.3764 32.5139 27.11 32.5ZM41.42 32.5H40.89C40.6236 32.5139 40.3627 32.5809 40.1226 32.6972C39.8826 32.8134 39.6681 32.9765 39.492 33.1768C39.3159 33.3772 39.1817 33.6107 39.0972 33.8637C39.0127 34.1167 38.9796 34.384 39 34.65V45.36C38.981 45.6252 39.0151 45.8914 39.1002 46.1433C39.1854 46.3951 39.3199 46.6274 39.4958 46.8267C39.6718 47.0259 39.8857 47.1881 40.1251 47.3037C40.3645 47.4193 40.6245 47.4861 40.89 47.5H41.42C44.27 47.5 46.57 44.14 46.57 40C46.57 35.86 44.26 32.5 41.42 32.5Z" fill="url(#paint0_linear_214_1203)"/>
    <defs>
        <linearGradient id="paint0_linear_214_1203" x1="15.5" y1="20.7998" x2="47.0126" y2="50.3201" gradientUnits="userSpaceOnUse">
            <stop stop-color="#2196F3"/>
            <stop offset="1" stop-color="#5D87FD"/>
        </linearGradient>
    </defs>
</svg>
