<svg width="70" height="70" viewBox="0 0 70 70" fill="none" xmlns="http://www.w3.org/2000/svg">
    <g clip-path="url(#clip0_177_1582)">
        <path d="M14.3698 1.5H53.6302C61.2903 1.5 67.5 7.7096 67.5 15.3696V54.63C67.5 62.2901 61.2903 68.5 53.6302 68.5H14.3698C6.70971 68.5 0.5 62.2901 0.5 54.63V15.3696C0.5 7.7096 6.7097 1.5 14.3698 1.5Z" stroke="#EAEAEA"/>
        <path fill-rule="evenodd" clip-rule="evenodd" d="M35.0202 38.475C36.5682 38.4724 38.0521 37.8562 39.1468 36.7616C40.2414 35.6669 40.8575 34.1831 40.8602 32.635V25.845C40.8602 25.0774 40.709 24.3174 40.4153 23.6082C40.1215 22.8991 39.691 22.2547 39.1482 21.712C38.6055 21.1692 37.9611 20.7387 37.252 20.4449C36.5428 20.1512 35.7828 20 35.0152 20C34.2476 20 33.4875 20.1512 32.7784 20.4449C32.0693 20.7387 31.4249 21.1692 30.8821 21.712C30.3394 22.2547 29.9088 22.8991 29.6151 23.6082C29.3214 24.3174 29.1702 25.0774 29.1702 25.845V32.635C29.1728 34.1848 29.7903 35.6702 30.8871 36.7651C31.9839 37.86 33.4704 38.475 35.0202 38.475ZM45.0202 35.105C44.6076 34.9273 44.1415 34.9201 43.7237 35.085C43.3058 35.2499 42.9702 35.5735 42.7902 35.985C42.1349 37.5005 41.0509 38.7914 39.6716 39.699C38.2923 40.6066 36.6779 41.0912 35.0267 41.0934C33.3756 41.0955 31.7599 40.615 30.3783 39.711C28.9967 38.8069 27.9094 37.5188 27.2502 36.005C27.0712 35.5926 26.7356 35.2682 26.3174 35.1032C25.8992 34.9381 25.4326 34.946 25.0202 35.125C24.6078 35.304 24.2834 35.6395 24.1183 36.0577C23.9533 36.476 23.9612 36.9426 24.1402 37.355C24.9491 39.2078 26.2179 40.8234 27.8262 42.0484C29.4345 43.2735 31.329 44.0674 33.3302 44.355V46.175H31.2102C30.7077 46.175 30.2101 46.2741 29.746 46.4667C29.2819 46.6593 28.8603 46.9416 28.5055 47.2974C28.1506 47.6532 27.8695 48.0755 27.6781 48.5401C27.4867 49.0047 27.3889 49.5025 27.3902 50.005H42.6502C42.6475 48.9936 42.2439 48.0245 41.5278 47.3103C40.8117 46.5961 39.8416 46.195 38.8302 46.195H36.7102V44.375C38.7114 44.0874 40.6059 43.2935 42.2142 42.0684C43.8225 40.8434 45.0913 39.2278 45.9002 37.375C45.9942 37.1693 46.0461 36.9469 46.0526 36.7208C46.0591 36.4947 46.0202 36.2697 45.9381 36.0589C45.8561 35.8482 45.7325 35.656 45.5749 35.4939C45.4172 35.3317 45.2286 35.2029 45.0202 35.115V35.105Z" fill="url(#paint0_linear_177_1582)"/>
    </g>
    <defs>
        <linearGradient id="paint0_linear_177_1582" x1="16" y1="20" x2="53.677" y2="44.9151" gradientUnits="userSpaceOnUse">
            <stop stop-color="#2BC8FE"/>
            <stop offset="1" stop-color="#5493FE"/>
        </linearGradient>
        <clipPath id="clip0_177_1582">
            <rect width="70" height="70" fill="white"/>
        </clipPath>
    </defs>
</svg>
