<svg width="70" height="70" viewBox="0 0 70 70" fill="none" xmlns="http://www.w3.org/2000/svg">
    <path d="M14.3698 1.5H53.6302C61.2903 1.5 67.5 7.7096 67.5 15.3696V54.63C67.5 62.2901 61.2903 68.5 53.6302 68.5H14.3698C6.70971 68.5 0.5 62.2901 0.5 54.63V15.3696C0.5 7.7096 6.7097 1.5 14.3698 1.5Z" stroke="#EAEAEA"/>
    <path d="M47.2 19L28.16 25.3757V40.6757C27.3381 40.182 26.3987 39.9181 25.44 39.9114C22.4507 39.9114 20 42.3594 20 45.3514C20 48.3379 22.4507 50.7914 25.44 50.7914C28.4293 50.7914 30.88 48.3379 30.88 45.3514V27.3314L44.48 22.74V37.9557C43.6581 37.462 42.7187 37.1981 41.76 37.1914C38.7707 37.1914 36.32 39.6394 36.32 42.6314C36.32 45.6179 38.7707 48.0714 41.76 48.0714C44.7493 48.0714 47.2 45.6179 47.2 42.6314V19ZM41.76 39.9114C43.2778 39.9114 44.48 41.1109 44.48 42.6314C44.48 44.1491 43.2778 45.3514 41.76 45.3514C40.2422 45.3514 39.04 44.1491 39.04 42.6314C39.04 41.1109 40.2422 39.9114 41.76 39.9114ZM25.44 42.6314C26.9578 42.6314 28.16 43.8309 28.16 45.3514C28.16 46.8691 26.9578 48.0714 25.44 48.0714C23.9222 48.0714 22.72 46.8691 22.72 45.3514C22.72 43.8309 23.9222 42.6314 25.44 42.6314Z" fill="url(#paint0_linear_177_1490)"/>
    <path d="M47.2 19L28.16 25.3757V40.6757C27.3381 40.182 26.3987 39.9181 25.44 39.9114C22.4507 39.9114 20 42.3594 20 45.3514C20 48.3379 22.4507 50.7914 25.44 50.7914C28.4293 50.7914 30.88 48.3379 30.88 45.3514V27.3314L44.48 22.74V37.9557C43.6581 37.462 42.7187 37.1981 41.76 37.1914C38.7707 37.1914 36.32 39.6394 36.32 42.6314C36.32 45.6179 38.7707 48.0714 41.76 48.0714C44.7493 48.0714 47.2 45.6179 47.2 42.6314V19Z" fill="url(#paint1_linear_177_1490)"/>
    <defs>
        <linearGradient id="paint0_linear_177_1490" x1="33.6" y1="19" x2="33.6" y2="50.7914" gradientUnits="userSpaceOnUse">
            <stop stop-color="#22D1FE"/>
            <stop offset="1" stop-color="#6281FD"/>
        </linearGradient>
        <linearGradient id="paint1_linear_177_1490" x1="33.6" y1="19" x2="33.6" y2="50.7914" gradientUnits="userSpaceOnUse">
            <stop stop-color="#26CDFE"/>
            <stop offset="1" stop-color="#5B89FD"/>
        </linearGradient>
    </defs>
</svg>
