<svg width="70" height="70" viewBox="0 0 70 70" fill="none" xmlns="http://www.w3.org/2000/svg">
    <path d="M15.3698 1.5H54.6302C62.2903 1.5 68.5 7.7096 68.5 15.3696V54.63C68.5 62.2901 62.2903 68.5 54.6302 68.5H15.3698C7.70971 68.5 1.5 62.2901 1.5 54.63V15.3696C1.5 7.7096 7.7097 1.5 15.3698 1.5Z" stroke="#EAEAEA"/>
    <path fill-rule="evenodd" clip-rule="evenodd" d="M25.741 39.5511C21.453 34.4081 19.417 29.1031 20.145 25.0141V24.8241C22.337 19.0571 28.615 18.9141 29.57 22.0121L31.456 27.5421C31.6064 27.9983 31.6276 28.4872 31.5171 28.9546C31.4066 29.422 31.1687 29.8497 30.83 30.1901L28.946 32.0821C30.6793 35.9082 33.7311 38.983 37.544 40.7451L39.134 39.1501C39.4481 38.8335 39.8389 38.6036 40.2683 38.4831C40.6977 38.3625 41.151 38.3553 41.584 38.4621L47.946 40.0471C50.963 40.9101 51.173 47.1371 45.036 49.7051C38.653 51.4871 30.16 44.8321 25.741 39.5511Z" fill="url(#paint0_linear_177_1501)"/>
    <defs>
        <linearGradient id="paint0_linear_177_1501" x1="17" y1="20" x2="50" y2="51.5" gradientUnits="userSpaceOnUse">
            <stop stop-color="#39B7FE"/>
            <stop offset="1" stop-color="#5B8AFE"/>
        </linearGradient>
    </defs>
</svg>
