<svg width="70" height="70" viewBox="0 0 70 70" fill="none" xmlns="http://www.w3.org/2000/svg">
    <path d="M14.3698 1.5H53.6302C61.2903 1.5 67.5 7.7096 67.5 15.3696V54.63C67.5 62.2901 61.2903 68.5 53.6302 68.5H14.3698C6.70971 68.5 0.5 62.2901 0.5 54.63V15.3696C0.5 7.7096 6.7097 1.5 14.3698 1.5Z" stroke="#EAEAEA"/>
    <path d="M44.3231 49.9146C43.2025 50.7128 36.0121 45.6531 34.635 45.642C33.2579 45.6309 25.9866 50.5743 24.879 49.7581C23.7715 48.942 26.3753 40.5595 25.9603 39.2501C25.5454 37.9407 18.5836 32.5725 19.0197 31.2699C19.4558 29.9674 28.2554 29.8464 29.376 29.0482C30.4967 28.2501 33.4654 19.989 34.8426 20C36.2196 20.0111 39.0542 28.3189 40.1618 29.135C41.2693 29.9511 50.0659 30.2137 50.4809 31.5231C50.8959 32.8324 43.8482 38.088 43.412 39.3905C42.9759 40.6931 45.4437 49.1164 44.3231 49.9146Z" fill="url(#paint0_linear_177_1578)"/>
    <defs>
        <linearGradient id="paint0_linear_177_1578" x1="16.5" y1="20" x2="47.5" y2="53" gradientUnits="userSpaceOnUse">
            <stop stop-color="#25CEFE"/>
            <stop offset="1" stop-color="#6280FD"/>
        </linearGradient>
    </defs>
</svg>
