<svg width="70" height="70" viewBox="0 0 70 70" fill="none" xmlns="http://www.w3.org/2000/svg">
    <path d="M15.3698 1.5H54.6302C62.2903 1.5 68.5 7.7096 68.5 15.3696V54.63C68.5 62.2901 62.2903 68.5 54.6302 68.5H15.3698C7.70971 68.5 1.5 62.2901 1.5 54.63V15.3696C1.5 7.7096 7.7097 1.5 15.3698 1.5Z" stroke="#C7C7C8"/>
    <path fill-rule="evenodd" clip-rule="evenodd" d="M26 37.4H21C20.7348 37.4 20.4804 37.5054 20.2929 37.6929C20.1054 37.8804 20 38.1348 20 38.4V48.4C20 48.6652 20.1054 48.9196 20.2929 49.1071C20.4804 49.2946 20.7348 49.4 21 49.4H26C26.2652 49.4 26.5196 49.2946 26.7071 49.1071C26.8946 48.9196 27 48.6652 27 48.4V38.4C27 38.1348 26.8946 37.8804 26.7071 37.6929C26.5196 37.5054 26.2652 37.4 26 37.4ZM36 33.4H31C30.7348 33.4 30.4804 33.5054 30.2929 33.6929C30.1054 33.8804 30 34.1348 30 34.4V48.4C30 48.6652 30.1054 48.9196 30.2929 49.1071C30.4804 49.2946 30.7348 49.4 31 49.4H36C36.2652 49.4 36.5196 49.2946 36.7071 49.1071C36.8946 48.9196 37 48.6652 37 48.4V34.4C37 34.1348 36.8946 33.8804 36.7071 33.6929C36.5196 33.5054 36.2652 33.4 36 33.4ZM49.81 27.8L44.3 20.4C44.2069 20.2758 44.0861 20.175 43.9472 20.1056C43.8084 20.0361 43.6552 20 43.5 20C43.3448 20 43.1916 20.0361 43.0528 20.1056C42.9139 20.175 42.7931 20.2758 42.7 20.4L37.19 27.8C36.54 28.68 36.9 29.4 37.99 29.4H39.99V48.4C39.99 48.6652 40.0954 48.9196 40.2829 49.1071C40.4704 49.2946 40.7248 49.4 40.99 49.4H45.99C46.2552 49.4 46.5096 49.2946 46.6971 49.1071C46.8846 48.9196 46.99 48.6652 46.99 48.4V29.4H48.99C50.1 29.4 50.47 28.68 49.81 27.8Z" fill="url(#paint0_linear_177_1581)"/>
    <defs>
        <linearGradient id="paint0_linear_177_1581" x1="15.5" y1="24" x2="48.2848" y2="53.3002" gradientUnits="userSpaceOnUse">
            <stop stop-color="#2FC1FE"/>
            <stop offset="1" stop-color="#6182FD"/>
        </linearGradient>
    </defs>
</svg>
