<svg width="42" height="42" viewBox="0 0 42 42" fill="none" xmlns="http://www.w3.org/2000/svg">
    <g clip-path="url(#clip0_606_730)">
        <path d="M9.13043 0.5H32.6695C37.436 0.5 41.3 4.36398 41.3 9.13043V32.6695C41.3 37.436 37.436 41.3 32.6695 41.3H9.13043C4.36398 41.3 0.5 37.436 0.5 32.6695V9.13043C0.5 4.36398 4.36398 0.5 9.13043 0.5Z" stroke="white"/>
        <path d="M26.0143 22.2606L26.6099 18.4765H22.9412V16.0169C22.9412 14.9822 23.4533 13.9712 25.0911 13.9712H26.7826V10.7489C25.7976 10.5918 24.8023 10.5068 23.8047 10.4946C20.7852 10.4946 18.8139 12.3098 18.8139 15.5912V18.4765H15.4668V22.2606H18.8139V31.4132H22.9412V22.2606H26.0143Z" fill="white"/>
    </g>
    <defs>
        <clipPath id="clip0_606_730">
            <rect width="42" height="42" fill="white"/>
        </clipPath>
    </defs>
</svg>
