<svg width="42" height="42" viewBox="0 0 42 42" fill="none" xmlns="http://www.w3.org/2000/svg">
    <g clip-path="url(#clip0_606_725)">
        <path d="M9.13043 0.5H32.6695C37.436 0.5 41.3 4.36398 41.3 9.13043V32.6695C41.3 37.436 37.436 41.3 32.6695 41.3H9.13043C4.36398 41.3 0.5 37.436 0.5 32.6695V9.13043C0.5 4.36398 4.36398 0.5 9.13043 0.5Z" stroke="white"/>
        <path d="M17.4216 20.9534C17.4216 19.028 18.9816 17.4667 20.9065 17.4667C22.8313 17.4667 24.3921 19.028 24.3921 20.9534C24.3921 22.8788 22.8313 24.4401 20.9065 24.4401C18.9816 24.4401 17.4216 22.8788 17.4216 20.9534ZM15.5373 20.9534C15.5373 23.9197 17.9411 26.3241 20.9065 26.3241C23.8718 26.3241 26.2756 23.9197 26.2756 20.9534C26.2756 17.9872 23.8718 15.5827 20.9065 15.5827C17.9411 15.5827 15.5373 17.9872 15.5373 20.9534ZM25.2334 15.3697C25.2333 15.618 25.3068 15.8607 25.4446 16.0671C25.5824 16.2736 25.7783 16.4345 26.0075 16.5296C26.2368 16.6247 26.4891 16.6497 26.7325 16.6014C26.9759 16.553 27.1995 16.4336 27.3751 16.2581C27.5506 16.0827 27.6702 15.859 27.7187 15.6156C27.7673 15.3722 27.7425 15.1198 27.6476 14.8904C27.5527 14.661 27.392 14.465 27.1857 14.327C26.9794 14.189 26.7368 14.1152 26.4887 14.1151H26.4882C26.1555 14.1153 25.8365 14.2475 25.6013 14.4828C25.366 14.718 25.2337 15.037 25.2334 15.3697ZM16.6821 29.467C15.6627 29.4206 15.1086 29.2507 14.7404 29.1072C14.2522 28.9171 13.9039 28.6907 13.5377 28.3249C13.1714 27.9591 12.9447 27.611 12.7555 27.1226C12.612 26.7545 12.4422 26.2 12.3958 25.1803C12.3451 24.0778 12.335 23.7466 12.335 20.9535C12.335 18.1604 12.3459 17.8301 12.3958 16.7267C12.4422 15.707 12.6133 15.1536 12.7555 14.7843C12.9456 14.2961 13.1719 13.9476 13.5377 13.5813C13.9034 13.215 14.2513 12.9882 14.7404 12.7989C15.1084 12.6554 15.6627 12.4855 16.6821 12.4392C17.7843 12.3884 18.1154 12.3783 20.9065 12.3783C23.6975 12.3783 24.029 12.3893 25.1321 12.4392C26.1515 12.4856 26.7047 12.6567 27.0738 12.7989C27.562 12.9882 27.9103 13.2155 28.2765 13.5813C28.6428 13.9471 28.8686 14.2961 29.0587 14.7843C29.2022 15.1525 29.372 15.707 29.4184 16.7267C29.4691 17.8301 29.4792 18.1604 29.4792 20.9535C29.4792 23.7466 29.4691 24.0769 29.4184 25.1803C29.3719 26.2 29.2013 26.7543 29.0587 27.1226C28.8686 27.611 28.6423 27.9594 28.2765 28.3249C27.9108 28.6904 27.562 28.9171 27.0738 29.1072C26.7057 29.2508 26.1515 29.4207 25.1321 29.467C24.0299 29.5177 23.6988 29.5279 20.9065 29.5279C18.1141 29.5279 17.784 29.5177 16.6821 29.467ZM16.5956 10.5575C15.4824 10.6082 14.7218 10.7848 14.0575 11.0433C13.3696 11.3103 12.7872 11.6685 12.2052 12.2497C11.6233 12.8309 11.2661 13.4144 10.9992 14.1025C10.7407 14.7674 10.5642 15.5278 10.5135 16.6413C10.462 17.7565 10.4502 18.113 10.4502 20.9534C10.4502 23.7938 10.462 24.1503 10.5135 25.2656C10.5642 26.3791 10.7407 27.1395 10.9992 27.8043C11.2661 28.4921 11.6234 29.0762 12.2052 29.6571C12.7871 30.2381 13.3696 30.5958 14.0575 30.8635C14.7231 31.1221 15.4824 31.2987 16.5956 31.3494C17.711 31.4 18.0669 31.4127 20.9065 31.4127C23.7461 31.4127 24.1025 31.4009 25.2174 31.3494C26.3306 31.2987 27.0907 31.1221 27.7554 30.8635C28.4429 30.5958 29.0257 30.2383 29.6077 29.6571C30.1896 29.0759 30.5461 28.4921 30.8137 27.8043C31.0722 27.1395 31.2496 26.379 31.2994 25.2656C31.3501 24.1495 31.3619 23.7938 31.3619 20.9534C31.3619 18.113 31.3501 17.7565 31.2994 16.6413C31.2487 15.5277 31.0722 14.767 30.8137 14.1025C30.5461 13.4148 30.1887 12.8319 29.6077 12.2497C29.0266 11.6676 28.4429 11.3103 27.7563 11.0433C27.0907 10.7848 26.3305 10.6074 25.2182 10.5575C24.1033 10.5068 23.7469 10.4941 20.9073 10.4941C18.0677 10.4941 17.711 10.5059 16.5956 10.5575Z" fill="white"/>
    </g>
    <defs>
        <clipPath id="clip0_606_725">
            <rect width="42" height="42" fill="white"/>
        </clipPath>
    </defs>
</svg>
