<svg width="42" height="42" viewBox="0 0 42 42" fill="none" xmlns="http://www.w3.org/2000/svg">
    <g clip-path="url(#clip0_606_735)">
        <path d="M9.13043 0.5H32.6695C37.436 0.5 41.3 4.36398 41.3 9.13043V32.6695C41.3 37.436 37.436 41.3 32.6695 41.3H9.13043C4.36398 41.3 0.5 37.436 0.5 32.6695V9.13043C0.5 4.36398 4.36398 0.5 9.13043 0.5Z" stroke="white"/>
        <path d="M31.2747 14.2822C30.5845 14.5795 29.8589 14.7865 29.1158 14.8981C29.4633 14.8385 29.9744 14.2126 30.1779 13.9593C30.487 13.5772 30.7226 13.1409 30.8727 12.6728C30.8727 12.638 30.9074 12.5884 30.8727 12.5635C30.8552 12.5539 30.8356 12.5489 30.8156 12.5489C30.7957 12.5489 30.7761 12.5539 30.7585 12.5635C29.9517 13.0008 29.093 13.3346 28.2027 13.557C28.1717 13.5665 28.1387 13.5673 28.1072 13.5594C28.0757 13.5515 28.0469 13.5352 28.024 13.5123C27.9547 13.4296 27.8801 13.3517 27.8007 13.2788C27.4376 12.9532 27.0256 12.6867 26.5799 12.489C25.9781 12.2419 25.3282 12.1349 24.6791 12.1761C24.0493 12.2159 23.4344 12.3849 22.8726 12.6728C22.3195 12.9763 21.8333 13.3885 21.4433 13.8848C21.0331 14.3956 20.737 14.9884 20.5748 15.6233C20.4411 16.2273 20.4259 16.8515 20.5302 17.4612C20.5302 17.5655 20.5302 17.5804 20.4408 17.5655C16.9023 17.044 13.9991 15.7873 11.6269 13.09C11.5226 12.9708 11.468 12.9708 11.3837 13.09C10.3514 14.6597 10.8526 17.1433 12.143 18.3702C12.3167 18.5341 12.4953 18.6931 12.6839 18.8421C12.0923 18.8001 11.5152 18.6396 10.9867 18.3702C10.8874 18.3056 10.8328 18.3404 10.8279 18.4596C10.8138 18.6249 10.8138 18.7911 10.8279 18.9563C10.9314 19.7484 11.2433 20.4987 11.7316 21.1306C12.2199 21.7625 12.8671 22.2532 13.607 22.5526C13.7874 22.63 13.9753 22.6882 14.1678 22.7265C13.6201 22.8344 13.0584 22.8512 12.5053 22.7762C12.3862 22.7513 12.3415 22.8159 12.3862 22.9301C13.1157 24.917 14.6988 25.523 15.8601 25.8608C16.019 25.8857 16.1778 25.8857 16.3564 25.9254C16.3564 25.9254 16.3564 25.9254 16.3267 25.9552C15.9842 26.581 14.5996 27.0033 13.9643 27.2218C12.8049 27.6387 11.5686 27.798 10.3415 27.6887C10.148 27.6589 10.1033 27.6639 10.0536 27.6887C10.004 27.7136 10.0536 27.7682 10.1082 27.8179C10.3564 27.9818 10.6045 28.1259 10.8626 28.265C11.6309 28.6844 12.4431 29.0175 13.2844 29.2584C17.6418 30.4605 22.5451 29.5763 25.8156 26.3227C28.3863 23.7696 29.2895 20.2478 29.2895 16.7211C29.2895 16.587 29.4533 16.5075 29.5476 16.4379C30.198 15.9307 30.7714 15.3317 31.2499 14.6597C31.3327 14.5595 31.3752 14.4319 31.369 14.3021C31.369 14.2276 31.369 14.2424 31.2747 14.2822Z" fill="white"/>
    </g>
    <defs>
        <clipPath id="clip0_606_735">
            <rect width="42" height="42" fill="white"/>
        </clipPath>
    </defs>
</svg>
